<svg preserveAspectRatio="none" width="100%" height="100%" overflow="visible" style="display: block;" viewBox="0 0 20 20" fill="none" xmlns="http://www.w3.org/2000/svg">
<path id="Shape" fill-rule="evenodd" clip-rule="evenodd" d="M7.61709 0C3.41354 0 0 3.38049 0 7.55778C0 11.7351 3.41354 15.1156 7.61709 15.1156C9.18427 15.1156 10.6421 14.6455 11.8537 13.8396L16.8229 18.7679C17.3591 19.2996 18.227 19.2996 18.7631 18.7679C19.3012 18.2342 19.3012 17.3676 18.7631 16.8339L13.8257 11.9372C14.7123 10.7019 15.2342 9.18997 15.2342 7.55778C15.2342 3.38049 11.8206 0 7.61709 0ZM2.74729 7.55778C2.74729 4.89556 4.92432 2.73153 7.61709 2.73153C10.3099 2.73153 12.4869 4.89556 12.4869 7.55778C12.4869 10.22 10.3099 12.384 7.61709 12.384C4.92432 12.384 2.74729 10.22 2.74729 7.55778Z" fill="var(--fill-0, #E86339)"/>
</svg>
